<?xml version="1.0" standalone="no"?><!DOCTYPE svg PUBLIC "-//W3C//DTD SVG 1.1//EN" "http://www.w3.org/Graphics/SVG/1.1/DTD/svg11.dtd"><svg t="1782119737538" class="icon" viewBox="0 0 1024 1024" version="1.1" xmlns="http://www.w3.org/2000/svg" p-id="8907" xmlns:xlink="http://www.w3.org/1999/xlink" width="200" height="200"><path d="M739.555556 193.991111L830.008889 284.444444l-512 512H227.555556v-90.453333l512-512m0-67.128889a31.857778 31.857778 0 0 0-22.755556 9.102222l-537.031111 537.6a31.857778 31.857778 0 0 0-9.102222 22.755556v125.724444a31.857778 31.857778 0 0 0 31.857777 31.857778h125.724445a31.857778 31.857778 0 0 0 22.755555-9.102222L887.466667 307.2a31.857778 31.857778 0 0 0 0-44.942222L762.311111 136.533333a31.857778 31.857778 0 0 0-22.755555-9.102222zM881.777778 910.222222h-796.444445a28.444444 28.444444 0 0 0 0 56.888889h796.444445a28.444444 28.444444 0 0 0 0-56.888889z" fill="#252B3A" p-id="8908"></path></svg>