<?xml version="1.0" standalone="no"?><!DOCTYPE svg PUBLIC "-//W3C//DTD SVG 1.1//EN" "http://www.w3.org/Graphics/SVG/1.1/DTD/svg11.dtd"><svg t="1782120262353" class="icon" viewBox="0 0 1024 1024" version="1.1" xmlns="http://www.w3.org/2000/svg" p-id="15876" xmlns:xlink="http://www.w3.org/1999/xlink" width="200" height="200"><path d="M415.73376 386.072576l82.753536 101.689344c6.971392 8.566784 20.051968 8.566784 27.02336 0l82.753536-101.689344c14.63296-17.98144 21.303296-38.537216 21.51424-58.687488 0.393216-2.666496 0.663552-5.371904 0.663552-8.142848V185.884672c0-30.88384-25.268224-56.152064-56.152064-56.152064h-124.585984c-30.88384 0-56.152064 25.268224-56.152064 56.152064v133.359616c0 2.770944 0.270336 5.474304 0.663552 8.1408 0.217088 20.150272 6.885376 40.706048 21.518336 58.687488zM838.115328 393.555968h-133.359616c-2.770944 0-5.474304 0.270336-8.1408 0.663552-20.148224 0.212992-40.706048 6.88128-58.687488 21.51424l-101.689344 82.753536c-8.566784 6.971392-8.566784 20.051968 0 27.02336l101.689344 82.753536c17.98144 14.63296 38.537216 21.303296 58.687488 21.51424 2.666496 0.393216 5.371904 0.663552 8.142848 0.663552h133.359616c30.88384 0 56.152064-25.268224 56.152064-56.152064v-124.585984c-0.004096-30.879744-25.27232-56.147968-56.154112-56.147968zM608.26624 637.927424l-82.753536-101.689344c-6.971392-8.566784-20.051968-8.566784-27.02336 0l-82.753536 101.689344c-14.63296 17.98144-21.303296 38.537216-21.51424 58.687488-0.393216 2.666496-0.663552 5.371904-0.663552 8.142848v133.359616c0 30.88384 25.268224 56.152064 56.152064 56.152064h124.585984c30.88384 0 56.152064-25.268224 56.152064-56.152064V704.75776c0-2.770944-0.270336-5.474304-0.663552-8.1408-0.217088-20.15232-6.885376-40.708096-21.518336-58.689536zM487.763968 498.487296l-101.689344-82.753536c-17.98144-14.63296-38.537216-21.303296-58.687488-21.51424-2.666496-0.393216-5.371904-0.663552-8.142848-0.663552H185.884672c-30.88384 0-56.152064 25.268224-56.152064 56.152064v124.585984c0 30.88384 25.268224 56.152064 56.152064 56.152064h133.359616c2.770944 0 5.474304-0.270336 8.1408-0.663552 20.148224-0.212992 40.706048-6.88128 58.687488-21.51424l101.689344-82.753536c8.568832-6.97344 8.568832-20.056064 0.002048-27.027456z" p-id="15877"></path></svg>