<svg version="1.0" xmlns="http://www.w3.org/2000/svg" width="800.000000" height="800.000000" viewBox="0 0 800.000000 800.000000" preserveAspectRatio="xMidYMid meet">
  <metadata>
    <rdf:RDF xmlns:rdf="http://www.w3.org/1999/02/22-rdf-syntax-ns#" xmlns:rdfs="http://www.w3.org/2000/01/rdf-schema#" xmlns:dc="http://purl.org/dc/elements/1.1/">
      <rdf:Description dc:format="image/svg+xml" dc:Label="1" dc:ContentProducer="001191330110MACRLGPT8B00000" dc:ProduceID="451879063" dc:ReservedCode1="MDfQYSrZCkvidK0o/Co0n0c6L7GgmteSFi98WaRyld0=" dc:ContentPropagator="001191330110MACRLGPT8B00000" dc:PropagateID="451879063" dc:ReservedCode2="MDfQYSrZCkvidK0o/Co0n0c6L7GgmteSFi98WaRyld0="/>
    </rdf:RDF>
  </metadata>
  <g transform="translate(-55.285438,841.884134) scale(0.117466,-0.117466)" fill="#000000" stroke="none">
    <path d="M3843 4950 c-12 -5 -30 -21 -39 -36 -17 -25 -18 -86 -16 -1008 3 -1068 0 -1014 58 -1036 49 -19 94 -12 125 19 l29 29 0 989 c0 921 -2 989 -18 1009 -33 41 -88 55 -139 34z"/>
    <path d="M5504 3971 c-21 -12 -58 -65 -116 -162 -74 -125 -276 -460 -530 -879 -41 -69 -78 -137 -82 -152 -16 -68 51 -136 122 -124 48 7 65 26 137 146 34 58 140 233 235 390 394 650 395 650 394 694 -1 32 -8 46 -38 73 -41 38 -76 42 -122 14z"/>
    <path d="M2124 3926 c-66 -66 -68 -61 228 -581 159 -280 273 -482 366 -650 24 -44 51 -87 59 -97 64 -72 183 -23 183 75 0 33 -18 74 -92 207 -104 188 -362 645 -447 795 -32 55 -77 134 -100 176 -65 116 -131 141 -197 75z"/>
  </g>
</svg>