<?xml version="1.0" standalone="no"?><!DOCTYPE svg PUBLIC "-//W3C//DTD SVG 1.1//EN" "http://www.w3.org/Graphics/SVG/1.1/DTD/svg11.dtd"><svg t="1782119673675" class="icon" viewBox="0 0 1024 1024" version="1.1" xmlns="http://www.w3.org/2000/svg" p-id="7005" xmlns:xlink="http://www.w3.org/1999/xlink" width="200" height="200"><path d="M972.970667 725.12c-18.346667 23.168-63.274667 39.68-63.274667 39.68l-334.165333 120.021333v-88.533333l245.930666-87.594667c27.904-9.984 32.213333-24.149333 9.514667-31.573333-22.656-7.424-63.658667-5.248-91.52 4.693333l-163.925333 57.728V647.68l9.429333-3.157333s47.36-16.768 113.92-24.192c66.602667-7.338667 148.138667 1.024 212.138667 25.216 72.192 22.912 80.256 56.448 61.952 79.573333z m-365.653334-150.656V348.032c0-26.581333-4.864-51.072-29.781333-57.984-19.157333-6.144-30.976 11.605333-30.976 38.144V895.146667l-152.917333-48.512V170.666667c65.024 12.074667 159.701333 40.576 210.645333 57.770666 129.450667 44.416 173.354667 99.754667 173.354667 224.426667 0 121.472-75.008 167.552-170.325334 121.557333v0.042667zM113.109333 787.114667c-74.026667-20.992-86.357333-64.426667-52.608-89.386667 31.189333-23.125333 84.224-40.490667 84.224-40.490667l219.264-78.037333v88.917333l-157.866666 56.490667c-27.733333 9.941333-32.042667 24.106667-9.386667 31.573333 22.613333 7.381333 63.616 5.248 91.52-4.693333l75.648-27.52v79.530667l-15.061333 2.56c-78.933333 12.757333-159.829333 6.229333-235.733334-18.986667v0.042667z" p-id="7006"></path></svg>