<?xml version="1.0" standalone="no"?><!DOCTYPE svg PUBLIC "-//W3C//DTD SVG 1.1//EN" "http://www.w3.org/Graphics/SVG/1.1/DTD/svg11.dtd"><svg t="1782119593730" class="icon" viewBox="0 0 1024 1024" version="1.1" xmlns="http://www.w3.org/2000/svg" p-id="4983" xmlns:xlink="http://www.w3.org/1999/xlink" width="200" height="200"><path d="M867.945878 144.425324a144.993928 144.993928 0 0 0-81.878924 29.56739c-19.901127 15.920902-68.232437 56.860364-129.073026 107.466088 143.856721 170.581092 256.440241 394.610926 263.832089 469.666606a403.13998 403.13998 0 0 1 0 64.820815 511.743275 511.743275 0 0 0-56.860364-670.952295z" p-id="4984"></path><path d="M512 0a511.743275 511.743275 0 0 0-262.694881 72.781266 357.651689 357.651689 0 0 1 38.665047 0 272.929747 272.929747 0 0 1 36.959237 0A475.352643 475.352643 0 0 1 515.980225 153.522983a475.921246 475.921246 0 0 1 191.050823-80.173114 271.79254 271.79254 0 0 1 36.390633 0h29.567389A511.743275 511.743275 0 0 0 512 0z" p-id="4985"></path><path d="M158.89714 144.425324a511.743275 511.743275 0 0 0-46.056895 682.324368 354.808671 354.808671 0 0 1 0-77.330095c7.391847-75.05568 119.975368-300.222722 263.832089-469.666606-62.5464-52.311535-110.87771-89.839375-130.778837-105.760277a145.562532 145.562532 0 0 0-86.996357-29.56739zM515.980225 407.688809C356.771206 555.525756 186.190115 739.184731 170.837816 849.493837a63.115004 63.115004 0 0 0 6.25464 42.07667A437.824802 437.824802 0 0 0 512 1023.486551a511.743275 511.743275 0 0 0 344.005202-133.621855 63.683608 63.683608 0 0 0 5.686036-40.370859c-15.920902-113.720728-186.501994-293.968082-345.711013-441.805028z" p-id="4986"></path></svg>