<svg version="1.0" xmlns="http://www.w3.org/2000/svg" width="800.000000" height="800.000000" viewBox="0 0 800.000000 800.000000" preserveAspectRatio="xMidYMid meet">
  <metadata>
    <rdf:RDF xmlns:rdf="http://www.w3.org/1999/02/22-rdf-syntax-ns#" xmlns:rdfs="http://www.w3.org/2000/01/rdf-schema#" xmlns:dc="http://purl.org/dc/elements/1.1/">
      <rdf:Description dc:format="image/svg+xml" dc:Label="1" dc:ContentProducer="001191330110MACRLGPT8B00000" dc:ProduceID="451877552" dc:ReservedCode1="Bpi+q/GVKQUO3e6nh/i9h+GqJ5aqRHO6YmVHESifwMo=" dc:ContentPropagator="001191330110MACRLGPT8B00000" dc:PropagateID="451877552" dc:ReservedCode2="Bpi+q/GVKQUO3e6nh/i9h+GqJ5aqRHO6YmVHESifwMo="/>
    </rdf:RDF>
  </metadata>
  <g transform="translate(127.196657,702.319540) scale(0.072055,-0.072055)" fill="#000000" stroke="none">
    <path d="M1176 6749 c-156 -54 -270 -194 -296 -364 -7 -47 -10 -429 -8 -1180 l3 -1110 24 -63 c46 -123 142 -223 261 -274 51 -21 71 -23 308 -26 l252 -4 0 89 0 88 -233 0 -232 0 -54 30 c-29 16 -69 47 -87 69 -67 79 -65 22 -62 1272 3 1079 4 1131 22 1164 26 49 84 108 131 133 l40 22 1440 3 c1044 2 1451 0 1481 -9 61 -16 132 -76 168 -139 l31 -55 3 -248 4 -248 86 3 87 3 -3 250 c-3 230 -5 255 -27 317 -44 128 -150 234 -277 277 -62 21 -64 21 -1532 21 -1453 -1 -1472 -1 -1530 -21z"/>
    <path d="M3233 4706 c-89 -28 -193 -114 -243 -201 -62 -109 -60 -55 -60 -1335 0 -940 3 -1175 14 -1215 39 -146 139 -257 281 -311 48 -18 104 -19 1545 -22 1013 -2 1517 1 1564 8 167 26 296 138 348 303 18 60 19 99 18 1244 0 1150 -1 1184 -20 1247 -27 86 -92 172 -170 224 -115 77 14 72 -1699 71 -1234 0 -1544 -3 -1578 -13z m3122 -173 c31 -10 67 -34 96 -63 84 -84 79 -1 79 -1295 0 -1267 3 -1202 -67 -1284 -20 -24 -60 -54 -87 -67 l-51 -24 -1500 0 c-1003 0 -1512 4 -1537 10 -60 17 -119 69 -153 135 l-30 59 0 1171 0 1171 30 59 c33 64 82 109 141 130 33 12 289 14 1535 15 1370 0 1500 -1 1544 -17z"/>
  </g>
</svg>